<svg width="122" height="120" viewBox="0 0 122 120" fill="none" xmlns="http://www.w3.org/2000/svg">
<path fill-rule="evenodd" clip-rule="evenodd" d="M48.9 120C36.0635 120 23.7528 114.951 14.676 105.963C5.59927 96.9752 0.5 84.7851 0.5 72.0745C0.5 59.3639 5.59927 47.1738 14.676 38.1861C23.7528 29.1983 36.0635 24.149 48.9 24.149C61.7365 24.149 74.0472 29.1983 83.124 38.1861C92.2007 47.1738 97.3 59.3639 97.3 72.0745C97.3 84.7851 92.2007 96.9752 83.124 105.963C74.0472 114.951 61.7365 120 48.9 120ZM48.9 108.019C53.667 108.019 58.3873 107.089 62.7914 105.283C67.1955 103.476 71.1972 100.829 74.568 97.4908C77.9387 94.1531 80.6126 90.1907 82.4368 85.8297C84.2611 81.4688 85.2 76.7948 85.2 72.0745C85.2 67.3543 84.2611 62.6802 82.4368 58.3193C80.6126 53.9583 77.9387 49.9959 74.568 46.6582C71.1972 43.3205 67.1955 40.6728 62.7914 38.8665C58.3873 37.0601 53.667 36.1304 48.9 36.1304C39.2726 36.1304 30.0396 39.9174 23.232 46.6582C16.4245 53.399 12.6 62.5415 12.6 72.0745C12.6 81.6075 16.4245 90.75 23.232 97.4908C30.0396 104.232 39.2726 108.019 48.9 108.019ZM67.05 78.0652C67.05 82.8317 65.1378 87.4029 61.734 90.7734C58.3302 94.1438 53.7137 96.0373 48.9 96.0373C44.0863 96.0373 39.4698 94.1438 36.066 90.7734C32.6622 87.4029 30.75 82.8317 30.75 78.0652H67.05ZM36.8 66.0838C38.4046 66.0838 39.9434 65.4527 41.078 64.3292C42.2126 63.2057 42.85 61.682 42.85 60.0931C42.85 58.5043 42.2126 56.9806 41.078 55.8571C39.9434 54.7336 38.4046 54.1024 36.8 54.1024C35.1954 54.1024 33.6566 54.7336 32.522 55.8571C31.3874 56.9806 30.75 58.5043 30.75 60.0931C30.75 61.682 31.3874 63.2057 32.522 64.3292C33.6566 65.4527 35.1954 66.0838 36.8 66.0838ZM61 66.0838C59.3954 66.0838 57.8566 65.4527 56.722 64.3292C55.5874 63.2057 54.95 61.682 54.95 60.0931C54.95 58.5043 55.5874 56.9806 56.722 55.8571C57.8566 54.7336 59.3954 54.1024 61 54.1024C62.6046 54.1024 64.1434 54.7336 65.278 55.8571C66.4126 56.9806 67.05 58.5043 67.05 60.0931C67.05 61.682 66.4126 63.2057 65.278 64.3292C64.1434 65.4527 62.6046 66.0838 61 66.0838ZM101.081 36.1304C96.0779 35.0521 80.6625 26.6052 80.6625 11.4188C80.6625 9.0613 81.4116 6.76354 82.8037 4.85103C84.1958 2.93851 86.1604 1.5082 88.419 0.762689C90.6777 0.0171775 93.116 -0.00573385 95.3886 0.6972C97.6612 1.40013 99.6527 2.79328 101.081 4.67929C102.51 2.79328 104.501 1.40013 106.774 0.6972C109.046 -0.00573385 111.485 0.0171775 113.743 0.762689C116.002 1.5082 117.967 2.93851 119.359 4.85103C120.751 6.76354 121.5 9.0613 121.5 11.4188C121.5 26.6052 106.085 35.0521 101.081 36.1304Z" fill="#FAFAFA"/>
</svg>
